<svg xmlns="http://www.w3.org/2000/svg" xmlns:xlink="http://www.w3.org/1999/xlink" width="500" zoomAndPan="magnify" viewBox="0 0 375 374.999991" height="500" preserveAspectRatio="xMidYMid meet" version="1.0"><defs><clipPath id="28a042aea7"><path d="M 158 126.09375 L 262.5 126.09375 L 262.5 249 L 158 249 Z M 158 126.09375 " clip-rule="nonzero"/></clipPath><clipPath id="815d2d5778"><path d="M 112.5 183 L 142 183 L 142 189 L 112.5 189 Z M 112.5 183 " clip-rule="nonzero"/></clipPath></defs><path fill="#2e4e5a" d="M 200.632812 238.640625 C 172.179688 238.640625 149.066406 215.683594 149.066406 187.5 C 149.066406 159.316406 172.207031 136.359375 200.632812 136.359375 C 229.058594 136.359375 252.199219 159.316406 252.199219 187.5 C 252.199219 215.683594 229.058594 238.640625 200.632812 238.640625 Z M 200.632812 141.699219 C 175.140625 141.699219 154.402344 162.25 154.402344 187.5 C 154.402344 212.75 175.140625 233.300781 200.632812 233.300781 C 226.121094 233.300781 246.859375 212.75 246.859375 187.5 C 246.859375 162.25 226.121094 141.699219 200.632812 141.699219 Z M 200.632812 141.699219 " fill-opacity="1" fill-rule="nonzero"/><path fill="#2e4e5a" d="M 185.019531 248.886719 L 133.640625 248.886719 C 132.171875 248.886719 130.96875 247.6875 130.96875 246.21875 C 130.96875 244.75 132.171875 243.550781 133.640625 243.550781 L 185.019531 243.550781 C 186.484375 243.550781 187.6875 244.75 187.6875 246.21875 C 187.6875 247.6875 186.484375 248.886719 185.019531 248.886719 Z M 185.019531 248.886719 " fill-opacity="1" fill-rule="nonzero"/><g clip-path="url(#28a042aea7)"><path fill="#2e4e5a" d="M 201.164062 248.886719 C 199.699219 248.886719 198.496094 247.6875 198.496094 246.21875 C 198.496094 244.75 199.699219 243.550781 201.164062 243.550781 C 232.074219 243.550781 257.214844 218.40625 257.214844 187.5 C 257.214844 156.59375 232.074219 131.449219 201.164062 131.449219 L 161.558594 131.449219 C 160.089844 131.449219 158.886719 130.25 158.886719 128.78125 C 158.886719 127.3125 160.089844 126.113281 161.558594 126.113281 L 201.164062 126.113281 C 235.007812 126.113281 262.554688 153.65625 262.554688 187.5 C 262.554688 221.34375 235.007812 248.886719 201.164062 248.886719 Z M 201.164062 248.886719 " fill-opacity="1" fill-rule="nonzero"/></g><path fill="#2e4e5a" d="M 200.632812 195.347656 C 196.308594 195.347656 192.785156 191.824219 192.785156 187.5 C 192.785156 183.175781 196.308594 179.652344 200.632812 179.652344 C 204.957031 179.652344 208.480469 183.175781 208.480469 187.5 C 208.480469 191.824219 204.957031 195.347656 200.632812 195.347656 Z M 200.632812 185.019531 C 199.242188 185.019531 198.121094 186.140625 198.121094 187.527344 C 198.121094 188.914062 199.242188 190.035156 200.632812 190.035156 C 202.019531 190.035156 203.140625 188.914062 203.140625 187.527344 C 203.140625 186.140625 202.019531 185.019531 200.632812 185.019531 Z M 200.632812 185.019531 " fill-opacity="1" fill-rule="nonzero"/><path fill="#2e4e5a" d="M 201.433594 192.757812 C 200.765625 192.757812 200.125 192.519531 199.644531 192.0625 L 195.800781 188.59375 C 195.265625 188.113281 194.945312 187.421875 194.921875 186.699219 C 194.921875 185.980469 195.160156 185.257812 195.667969 184.75 L 217.339844 162.492188 C 219.449219 160.300781 222.117188 159.875 223.800781 161.398438 C 225.480469 162.917969 225.292969 165.613281 223.371094 167.9375 L 203.488281 191.769531 C 203.035156 192.332031 202.339844 192.679688 201.621094 192.730469 C 201.566406 192.730469 201.484375 192.730469 201.433594 192.730469 Z M 201.433594 192.757812 " fill-opacity="1" fill-rule="nonzero"/><path fill="#2e4e5a" d="M 148.71875 230.070312 L 122.882812 230.070312 C 121.414062 230.070312 120.214844 228.871094 120.214844 227.402344 C 120.214844 225.933594 121.414062 224.734375 122.882812 224.734375 L 148.746094 224.734375 C 150.214844 224.734375 151.414062 225.933594 151.414062 227.402344 C 151.414062 228.871094 150.214844 230.070312 148.746094 230.070312 Z M 148.71875 230.070312 " fill-opacity="1" fill-rule="nonzero"/><path fill="#2e4e5a" d="M 138.390625 209.386719 L 117.703125 209.386719 C 116.238281 209.386719 115.035156 208.183594 115.035156 206.71875 C 115.035156 205.25 116.238281 204.046875 117.703125 204.046875 L 138.390625 204.046875 C 139.859375 204.046875 141.058594 205.25 141.058594 206.71875 C 141.058594 208.183594 139.859375 209.386719 138.390625 209.386719 Z M 138.390625 209.386719 " fill-opacity="1" fill-rule="nonzero"/><g clip-path="url(#815d2d5778)"><path fill="#2e4e5a" d="M 138.390625 188.699219 L 115.117188 188.699219 C 113.648438 188.699219 112.445312 187.5 112.445312 186.03125 C 112.445312 184.5625 113.648438 183.363281 115.117188 183.363281 L 138.390625 183.363281 C 139.859375 183.363281 141.058594 184.5625 141.058594 186.03125 C 141.058594 187.5 139.859375 188.699219 138.390625 188.699219 Z M 138.390625 188.699219 " fill-opacity="1" fill-rule="nonzero"/></g><path fill="#2e4e5a" d="M 142.125 168.015625 L 122.882812 168.015625 C 121.414062 168.015625 120.214844 166.816406 120.214844 165.347656 C 120.214844 163.878906 121.414062 162.679688 122.882812 162.679688 L 142.125 162.679688 C 143.59375 162.679688 144.796875 163.878906 144.796875 165.347656 C 144.796875 166.816406 143.59375 168.015625 142.125 168.015625 Z M 142.125 168.015625 " fill-opacity="1" fill-rule="nonzero"/><path fill="#2e4e5a" d="M 152.800781 147.332031 L 128.035156 147.332031 C 126.566406 147.332031 125.363281 146.128906 125.363281 144.660156 C 125.363281 143.195312 126.566406 141.992188 128.035156 141.992188 L 152.800781 141.992188 C 154.269531 141.992188 155.472656 143.195312 155.472656 144.660156 C 155.472656 146.128906 154.269531 147.332031 152.800781 147.332031 Z M 152.800781 147.332031 " fill-opacity="1" fill-rule="nonzero"/></svg>