<svg width="125" height="114" viewBox="0 0 125 114" fill="none" xmlns="http://www.w3.org/2000/svg">
<path fill-rule="evenodd" clip-rule="evenodd" d="M34.6029 57.9229C34.6511 57.9181 34.7019 57.9063 34.7553 57.8896C35.3399 57.6949 35.8412 56.5157 36.0534 56.0348C37.9141 51.8096 39.6003 45.3033 45.487 42.8143C46.0131 42.5911 46.1771 42.5127 46.6589 42.255C50.1003 40.4215 51.4102 39.3088 54.7019 37.5525C56.9375 36.3591 61.5313 35.2511 64.9688 36.0931C69.6172 37.2271 72.7357 39.031 76.0417 42.1695C81.0079 46.8803 84.1954 51.337 85.0626 58.1414C85.2435 59.5771 85.4831 67.2471 85.1264 68.4667C84.3282 71.179 83.3659 72.2608 82.9102 73.8081C82.9102 73.8081 82.7527 74.2985 82.4415 74.2142C82.1316 74.1299 82.3086 73.6608 82.3086 73.6608C84.8998 64.846 83.6446 69.032 83.9896 61.6433C84.0717 59.8882 83.9376 57.9823 83.543 56.3103C81.8399 49.0713 74.3086 40.526 66.2514 37.581C64.7826 37.0454 63.4154 38.3731 64.7136 39.4668C65.9623 40.5141 68.237 39.6544 74.2409 45.2819C76.9428 47.8113 78.5105 49.9702 79.8972 53.129L80.9805 56.2687C81.6602 58.5606 81.2553 60.8845 81.6693 63.6075C82.2631 67.5155 79.8099 74.9113 78.0222 77.8717C77.0821 79.4309 75.9545 81.0495 74.3295 82.0909C73.8868 82.3747 72.1667 83.263 72.655 84.0206C73.3191 85.0501 74.3907 83.9695 74.931 83.8009C75.1615 83.7285 75.4024 83.6358 75.612 83.523C76.2383 83.187 76.8256 82.7796 77.3842 82.3605C77.5977 82.2025 77.8112 82.0398 78.0079 81.8641C78.6433 81.3036 79.0417 80.7977 79.6719 80.2075C80.3191 79.6007 80.7136 79.2623 81.362 78.5925C83.1928 76.7032 86.3073 73.9589 87.1954 70.9331C87.6967 69.2267 87.6667 61.0721 87.5092 59.171C87.3529 57.2911 87.0482 55.5075 86.5131 53.8201C85.7917 51.5448 84.2344 47.7377 82.6277 45.8151C82.2383 45.3508 82.1706 45.13 81.8464 44.6787C81.5665 44.2892 81.3659 44.098 81.0573 43.7038C80.7553 43.319 80.5001 43.015 80.1563 42.6291C79.5105 41.9083 78.9441 41.3679 78.2852 40.678C71.0691 33.1457 60.2045 30.7588 51.0092 37.0775C50.1928 37.6392 49.5118 38.075 48.7553 38.6011C45.086 41.153 42.3464 40.8086 38.0274 46.834C36.7683 48.5891 36.0157 50.3383 35.0912 52.3725C34.6915 53.2489 34.4219 54.1918 34.1433 55.105C33.961 55.7011 33.7032 56.3506 33.8034 56.98C33.8633 57.366 34.1185 57.9633 34.6029 57.9229Z" fill="white"/>
<path fill-rule="evenodd" clip-rule="evenodd" d="M60.733 52.7012C60.7799 53.7521 61.5885 53.0016 63.5755 54.2901C64.1588 54.6677 65.7057 56.196 65.9349 56.1165C65.9349 56.1165 66.3229 55.9324 66.4466 55.5631C66.5716 55.1961 66.539 54.7556 66.539 54.7556C66.0794 52.2903 61.6328 50.5067 60.733 52.7012Z" fill="white"/>
<mask id="mask0_78_28" style="mask-type:luminance" maskUnits="userSpaceOnUse" x="62" y="88" width="8" height="4">
<path d="M62 88.4639H69.3333V91.9753H62V88.4639Z" fill="white"/>
</mask>
<g mask="url(#mask0_78_28)">
<path fill-rule="evenodd" clip-rule="evenodd" d="M62.5078 91.8159C63.082 92.0154 63.8138 91.5701 64.3307 91.4074C65.0494 91.1842 68.026 90.1843 68.6731 89.8173C68.8632 89.7093 69.125 89.5549 69.1888 89.34C69.25 89.131 69.1119 88.7427 68.9557 88.5871C68.5026 88.143 65.3099 89.112 64.7448 89.2022C64.1992 89.2889 63.6484 89.4409 63.181 89.7152C62.7369 89.9753 62.3906 90.3529 62.1315 90.7673C61.927 91.0963 62.0182 91.5642 62.3893 91.7637C62.4284 91.7838 62.4674 91.8028 62.5078 91.8159Z" fill="white"/>
</g>
<path fill-rule="evenodd" clip-rule="evenodd" d="M42.1055 28.9289C41.8737 29.316 41.7943 29.7186 42.2201 29.9442C42.6914 30.1936 43.2175 29.886 43.6003 29.6568C44.069 29.379 44.3138 29.1628 44.7865 28.8529C45.125 28.6308 45.4909 28.442 45.836 28.2259C46.4805 27.8233 50.1146 26.542 49.5599 25.6704C49.4727 25.5291 49.3386 25.4472 49.1654 25.4056C48.6068 25.2702 45.4544 26.4743 45.0039 26.738C43.9675 27.3448 42.7266 27.8934 42.1055 28.9289Z" fill="white"/>
<path fill-rule="evenodd" clip-rule="evenodd" d="M36.7304 39.2185C36.539 39.551 36.483 39.9156 36.7018 40.3075C37.0638 40.9582 38.0442 40.7647 38.5611 40.3692C39.0104 40.0248 39.4192 39.6235 39.8411 39.2518C40.4179 38.74 46.0117 34.0767 44.0195 34.0387C42.9804 34.0197 38.9882 37.1772 38.1822 37.8387C37.7369 38.202 37.0455 38.6675 36.7304 39.2185Z" fill="white"/>
<path fill-rule="evenodd" clip-rule="evenodd" d="M52.0833 90.1955C54.1145 90.6907 53.8828 90.8 56.5716 89.2491C60.2994 87.1009 61.6627 85.1344 60.4388 85.1035C60.3125 85.1 52.9075 87.9036 52.2812 88.6423C51.8932 89.0983 51.2421 89.9901 52.0833 90.1955Z" fill="white"/>
<path fill-rule="evenodd" clip-rule="evenodd" d="M51.1654 62.8912C51.2045 62.9019 51.2474 62.9126 51.2917 62.9174C51.5977 62.9589 51.8894 62.763 52.1094 62.5932C53.0586 61.8605 53.7071 60.749 54.2761 59.761C54.8164 58.8229 55.237 57.7921 55.9219 56.9324C56.5183 56.1854 57.3685 55.6796 58.1563 55.1202C58.7943 54.6666 59.8815 53.966 59.9519 53.1478C60.0196 52.3344 58.806 52.4341 58.2539 52.5731C55.7839 53.1929 54.7474 55.5097 53.3425 57.2162C52.3151 58.4654 50.6185 59.6304 50.5326 61.3226C50.5078 61.7952 50.5508 62.7202 51.1654 62.8912Z" fill="white"/>
<path fill-rule="evenodd" clip-rule="evenodd" d="M38.9322 72.8462C39.1497 72.9484 39.9531 73.1514 40.3163 72.8997C41.2291 72.2644 41.7174 71.3595 42.2577 70.4617C43.5716 68.2862 45.5702 65.6797 45.1236 62.6765C44.996 61.8155 44.6601 58.1937 43.6992 58.2768C42.927 58.7494 42.4374 62.1611 41.8854 64.0267C41.4973 65.3294 40.9036 66.3102 40.3437 67.2187C39.7382 68.2031 38.8762 69.216 38.4648 70.2884C38.2135 70.9415 38.1054 72.4591 38.9322 72.8462Z" fill="white"/>
<path fill-rule="evenodd" clip-rule="evenodd" d="M70.4218 88.8879C70.4375 88.9354 70.4609 88.9817 70.4987 89.0244C70.7252 89.3071 71.2995 89.1836 71.6159 89.1242C72.2942 88.9971 72.806 88.6516 73.3672 88.3048C73.7929 88.0436 74.2083 87.7752 74.6341 87.5187C75.8867 86.7599 77.1614 86.0213 78.3476 85.1769C80.1758 83.8814 81.5872 82.1785 83.0169 80.5374C83.4622 80.0256 83.9075 79.5149 84.362 79.0138C84.9297 78.3844 85.5638 77.8049 86.0807 77.1388C86.4075 76.7172 86.9349 76.0415 86.7656 75.4893C86.6875 75.2316 86.3672 74.9668 86.0911 74.8849C85.5117 74.7079 85.0664 75.1651 84.7747 75.5582C84.2578 76.2553 83.6875 76.8621 83.0312 77.4511C82.0091 78.3678 81.1341 79.4009 80.2565 80.4305C79.7044 81.0777 79.1758 81.7439 78.5547 82.34C77.8802 82.9884 77.1315 83.5667 76.375 84.1331C75.6901 84.6426 74.987 85.1342 74.2825 85.6211C73.6041 86.0925 72.8633 86.5117 72.1041 87.0033C71.6562 87.2943 71.1836 87.5828 70.8216 87.9652C70.612 88.1849 70.3164 88.572 70.4218 88.8879Z" fill="white"/>
<path fill-rule="evenodd" clip-rule="evenodd" d="M35.0742 45.7805C35.0638 45.8494 35.056 45.9206 35.0534 45.9907C35.0169 46.6877 35.3399 47.6639 36.2761 47.0155C36.7409 46.6937 37.0703 46.1356 37.4128 45.7176C38.3958 44.5134 39.3568 43.2879 40.474 42.1847C41.7969 40.8809 43.3086 39.7266 44.4623 38.285C45.3998 37.1129 46.2318 35.8637 47.3034 34.7866C48.349 33.7345 49.7305 33.0244 51.0599 32.3095C51.6602 31.9853 53.5013 31.331 53.2474 30.4463C53.0117 29.6364 51.2604 30.1482 50.7201 30.3525C47.4388 31.5768 45.2878 33.9209 43.2617 36.4812C42.6198 37.2911 41.931 38.0712 41.1823 38.8027C40.431 39.5342 39.6498 40.2372 38.8841 40.9533C37.9857 41.7952 37.1797 42.6989 36.3763 43.6169C35.8229 44.2534 35.2031 44.9528 35.0742 45.7805Z" fill="white"/>
<path fill-rule="evenodd" clip-rule="evenodd" d="M36.1002 58.2506C35.7812 59.3372 35.7838 59.8751 35.4934 61.0436C35.3906 61.4735 35.2538 63.4827 36.1328 63.3141C37.0455 63.1372 37.6315 61.3346 37.8775 60.6779C39.0286 57.6272 39.8163 54.4946 41.483 51.6184C42.6067 49.6781 44.2226 47.8101 46.0403 46.3649C49.6731 43.4746 47.4114 42.9497 46.4114 43.4579C46.0169 43.6574 45.8684 43.8462 45.4622 44.1146C40.5494 47.3636 39.0312 50.0379 37.1614 55.3757C36.7551 56.5347 36.414 57.1807 36.1002 58.2506Z" fill="white"/>
<path fill-rule="evenodd" clip-rule="evenodd" d="M43.9623 81.9638C44.2435 82.6668 46.0833 82.2833 46.599 82.0921C47.2513 81.851 47.7904 81.4686 48.3255 81.0601C49.6875 80.0235 50.7865 78.7766 51.9024 77.5285C52.543 76.8089 53.1966 75.9693 53.638 75.1345C59.2539 64.4648 62.5925 60.9047 62.6107 60.3763C62.6302 59.8158 62.8294 59.2303 62.612 58.6793C62.3034 57.8956 61.4974 57.8528 60.8112 58.177C60.1198 58.506 59.8529 59.4405 59.5612 60.0402C58.9037 61.3845 57.9141 62.5826 57.1146 63.8604C56.3789 65.0384 54.5599 69.4179 53.5274 71.3179C52.3438 73.5041 50.9024 75.733 49.1341 77.5048C48.1654 78.475 47.0586 79.2813 45.9024 80.0579C45.2852 80.4735 44.1107 80.8001 43.944 81.5969C43.9128 81.743 43.9206 81.8629 43.9623 81.9638Z" fill="white"/>
<path fill-rule="evenodd" clip-rule="evenodd" d="M78.8112 58.4927C78.5625 59.3394 78.7253 62.877 78.6654 63.827C78.4662 66.9643 78.7461 66.2839 78.1472 69.5127C77.7474 71.6573 77.7201 72.282 76.2709 75.1035C75.4493 76.7042 74.2774 78.2527 73.0261 79.3523C71.6758 80.5339 70.5235 81.2215 68.948 82.0171C66.3763 83.3162 64.556 82.8341 60.2995 87.1008C59.5508 87.8513 58.7292 88.5412 58.0222 89.325C57.7071 89.6753 57.4154 90.0422 57.1615 90.4305C56.9375 90.7713 56.2722 91.7261 57.0821 91.795C57.3685 91.8175 57.7123 91.776 57.9896 91.7095C58.2696 91.6418 58.5365 91.5408 58.7709 91.3876C65.4467 87.0378 67.2865 89.0744 70.3672 86.9369C70.7774 86.6507 71.1967 86.3752 71.6016 86.0819C71.7761 85.9548 71.9792 85.8207 72.1029 85.6497C72.293 85.3825 72.3178 84.8873 72.0912 84.6391C71.7956 84.3161 71.2709 84.3339 70.8724 84.4538C70.5756 84.5429 70.323 84.6961 70.0495 84.8267C69.4037 85.1343 68.8672 85.3409 68.1745 85.614C67.3711 85.9275 67.3178 85.8919 66.5248 86.133C65.3842 86.4785 64.3282 86.9939 64.4493 86.1579C66.7318 84.3351 69.6329 84.455 73.2253 82.0788C78.5573 78.5484 81.2878 70.1468 80.53 63.9279C80.1133 60.5115 81.3659 57.7766 79.6836 57.7256C78.8503 57.7351 78.8516 58.3526 78.8112 58.4927Z" fill="white"/>
<path fill-rule="evenodd" clip-rule="evenodd" d="M46.6563 37.969C47.2188 38.4939 48.0912 37.8966 48.556 37.557C49.8529 36.6129 51.0534 35.5465 52.4857 34.7652C53.8594 34.0135 55.4167 33.4827 56.9753 33.1502C59.3464 32.6419 61.918 32.3676 64.349 32.5588C67.4558 32.8034 70.3165 33.9707 72.931 35.4682C74.7214 36.4918 76.461 37.5795 77.9649 38.9428C79.668 40.4877 81.3451 42.1312 82.8008 43.8757C83.9024 45.1974 84.7826 46.6556 85.5391 48.1637C86.5704 50.2217 87.3204 52.3734 87.9362 54.5608C88.6003 56.9275 88.8816 59.3951 88.6771 61.8354C88.5899 62.8911 88.4493 63.9622 88.4454 65.0238C88.4441 65.4965 88.6185 66.3206 89.2839 66.3527C90.6446 66.4203 90.7618 64.2365 90.8933 63.4231C91.0378 62.5147 91.1133 61.5979 91.1654 60.6824C91.3151 58.0378 90.7448 55.3006 89.9584 52.7617C89.543 51.4198 89.0092 50.0887 88.3881 48.8109C87.2956 46.5642 85.8985 44.4338 84.2904 42.4637C82.4649 40.2277 80.4076 38.1388 78.0756 36.3327C75.8972 34.6476 73.4727 33.1893 70.823 32.2002C70.0665 31.9175 69.2943 31.6777 68.5053 31.4829C67.4883 31.2335 66.4519 31.0554 65.4089 30.9117C63.6941 30.679 62.0443 30.47 60.3034 30.565C57.9441 30.6908 55.5808 31.1421 53.4271 32.0505C52.2344 32.554 51.0339 33.1751 49.9727 33.8876C49.2592 34.3662 48.5873 34.9017 47.9597 35.4693C47.7709 35.6415 47.0717 36.3042 46.9193 36.5227C46.6693 36.8813 46.2878 37.4038 46.5665 37.861C46.5925 37.9037 46.6237 37.9393 46.6563 37.969Z" fill="white"/>
<path fill-rule="evenodd" clip-rule="evenodd" d="M42.8828 78.3393C42.6107 79.2169 42.6784 79.8165 43.9128 79.6919C44.8412 79.5968 45.7305 78.4664 46.3529 77.9272C49.6732 75.0523 50.8399 73.2128 53.1172 69.0613C54.4206 66.6852 55.7227 64.4372 57.0821 62.2023C58.9935 59.065 59.8516 56.4085 62.4662 57.0486C64.6068 57.5711 63.8594 59.6504 63.9037 61.3937C63.9506 63.1155 64.3802 64.4408 63.6979 66.7588C63.0131 69.0946 61.517 71.4221 60.2162 72.7758C58.1211 74.9573 56.8516 75.171 55.194 76.3573C52.4089 78.3488 49.8841 80.7487 47.3633 83.005C47.0248 83.309 45.6641 84.044 46.0339 84.6307C46.4922 85.3539 48.3672 84.6995 48.9623 84.4502C49.9961 84.0179 50.8581 83.2769 51.6563 82.5573C53.2552 81.1157 54.6146 79.8807 56.3021 78.6469C58.6901 76.9 63.5782 75.2209 65.1524 69.8605C66.6537 64.7436 66.3047 66.1258 66.0951 60.7037C65.9271 56.3503 66.2474 56.0119 62.2019 55.0227C59.4297 54.3458 57.3972 57.7932 56.2826 59.0638C48.1901 68.2693 51.1953 72.3151 44.3581 77.1898C43.9688 77.4665 42.987 78.0009 42.8828 78.3393Z" fill="white"/>
<path fill-rule="evenodd" clip-rule="evenodd" d="M38.8984 34.8198C38.7747 35.2473 39.0182 35.6321 39.487 35.7473C40.1185 35.9016 44.3828 33.1419 45.1719 32.6704C46.1445 32.0898 46.9245 31.4343 47.8867 30.8025C50.9375 28.7933 50.9101 28.5795 54.6706 29.4654C58.8515 30.4498 61.944 28.8811 66.7435 30.0556L69.7513 30.7894C72.4492 31.4485 76.4401 33.2321 76.1562 33.1395C77.0404 33.4281 76.1771 31.8819 75.5989 31.4224C75.1706 31.0851 74.513 30.5294 73.8359 30.3418C65.4466 28.0059 62.6784 27.5725 55.3737 27.6473C53.3815 27.6675 53.25 26.9538 53.25 26.9538C53.9219 25.7485 57.3073 27.0856 60.3346 26.8968C65.0859 26.5999 66.4844 27.05 70.9596 28.1437C79.2604 30.1719 77.539 33.3675 78.9245 35.0834C79.2565 35.4943 79.6029 35.8933 79.9492 36.2923C80.4427 36.8588 80.9401 37.4193 81.4479 37.9691C82.0065 38.5735 82.5664 39.1756 83.1406 39.7669C83.6627 40.3061 84.207 40.825 84.7604 41.3404C85.0065 41.5684 85.2526 41.7976 85.5208 42.0054C85.7252 42.1657 85.9713 42.3818 86.25 42.4258C87.0065 42.5421 86.5742 41.3024 86.4987 40.9865C86.4336 40.7181 86.3607 40.4367 86.2292 40.1873C86.0625 39.8691 85.8867 39.5556 85.7057 39.2444C85.4245 38.7576 85.1562 38.3301 84.7773 37.8776C84.3021 37.3076 84.1953 37.0571 83.7877 36.5429C83.0586 35.6178 81.0364 33.6798 80.5534 32.6799C79.0417 29.5485 78.931 29.0129 73.9075 26.9016C66.8737 23.9471 63.0195 25.6773 57.0716 24.9564C53.1601 24.4814 51.0781 25.5359 48.4909 27.4728C47.9778 27.8575 47.6146 28.0962 47.0911 28.4726C46.0716 29.2029 45.2461 29.7409 44.2513 30.4154C42.5885 31.5435 39.3515 33.2785 38.8984 34.8198Z" fill="white"/>
<path fill-rule="evenodd" clip-rule="evenodd" d="M45.4674 55.6392C43.97 60.73 47.4401 61.3642 45.7591 67.0808C44.6471 70.8677 39.0729 75.8398 41.1054 76.3362C44.2513 77.1057 48.3359 69.2884 48.8763 67.4513C51.4778 58.5997 45.6705 63.2962 55.0247 53.5932C57.056 51.4877 59.6484 49.8882 63.0377 50.717C68.8541 52.1385 67.6575 57.24 67.4414 63.0872C67.4075 63.9957 67.2916 64.859 67.2109 65.6843C67.112 66.639 66.8724 67.3895 66.7487 68.4037C66.358 71.5814 63.7851 74.9397 61.5377 77.0095C58.9297 79.413 54.8906 79.9094 53.9271 83.194C55.608 83.6049 56.3932 82.7285 58.7812 81.4899L63.0885 78.6518C70.1458 72.8699 71.2461 64.65 70.1719 56.5465C69.625 52.4128 68.0807 49.792 63.4284 48.6544C58.3919 47.4241 54.1172 51.8701 51.1718 54.4731C50.6093 54.9707 49.9843 55.4801 49.4414 56.024C47.3385 58.1235 46.8242 56.3541 51.0664 52.9674C55.5833 49.3609 58.0924 46.372 65.3034 48.133C69.3216 49.1151 71.4961 53.0564 71.9206 56.556C72.0039 57.2483 71.987 57.7898 72.0807 58.4797C72.4127 60.9224 74.9088 61.1552 74.3203 55.9088C73.8268 51.4925 70.1276 46.765 65.1979 45.5574C62.5364 44.909 60.4596 44.6359 57.7552 45.5859C56.1289 46.1547 54.358 47.0049 52.9961 47.9799C51.5716 48.9999 50.3047 50.2266 49.0716 51.4212C47.8411 52.6135 46.0833 53.5385 45.4674 55.6392Z" fill="white"/>
<path fill-rule="evenodd" clip-rule="evenodd" d="M36.7708 69.2347C37.5442 69.4674 38.4817 68.2395 38.7447 67.7515C39.0898 67.1138 39.3632 66.4429 39.6887 65.7969C40.5247 64.1332 41.2643 62.4125 41.8984 60.4472C42.1419 59.6907 42.233 59.7169 42.457 59.1872C43.0351 57.8192 42.8372 57.5295 44.0716 55.3089C46.3828 51.155 50.0703 47.6447 54.3606 45.3149C55.9309 44.4622 55.8906 44.087 58.6354 43.498C67.0755 41.687 75.8229 49.0258 75.6692 57.0545L75.47 64.8908C75.3997 68.7359 74.6601 71.9469 72.3216 75.2933C71.4635 76.5224 69.9713 78.2217 69.2877 77.7324C68.6054 77.2432 72.6627 72.8601 73.22 69.7892C73.6913 67.1886 74.2291 65.614 74.0911 62.9884C74.0442 62.0788 73.8867 61.3283 72.7617 61.523C71.3932 61.7629 71.9713 62.5384 71.5859 65.8539C70.5611 74.6948 64.1953 81.473 55.6835 84.095C53.6992 84.7054 49.6966 85.146 49.0637 87.3013C48.5663 88.997 55.4713 86.3762 56.8567 85.9499C61.3736 84.5558 60.5299 84.7565 64.5755 82.6107C67.0794 81.283 69.5807 80.5705 71.8971 78.9045C75.5481 76.2813 77.4023 71.2962 77.7304 66.6388C77.9492 63.5157 77.8932 60.7393 78.2447 57.4C78.414 55.7898 78.5312 54.3957 78.1406 52.9683C77.6301 51.098 75.3176 47.8644 73.8997 46.3895C68.6783 40.9449 62.233 40.1148 55.151 42.2879C54.746 42.4126 53.3411 42.8449 54.0208 42.0742C55.4778 40.4235 58.8463 39.9224 60.9726 39.4201C62.3294 39.1042 63.2682 38.6494 63.3203 38.0426C63.0247 36.8325 61.8697 37.1437 60.7851 37.2446C57.9752 37.5011 55.4778 38.1008 53.2812 39.8583C51.832 41.0185 50.9531 42.3699 49.7213 43.878C48.5091 45.3635 47.3619 46.665 46.1393 48.1304C45.0234 49.4699 43.7786 50.8106 42.7343 52.3924C41.8046 53.7984 40.9544 56.374 40.1367 58.1992C39.3671 59.9152 38.3893 62.1239 37.6692 63.9455C37.2942 64.8991 36.7643 65.8028 36.4713 66.786C36.2955 67.3762 35.927 68.6267 36.5234 69.1029C36.6028 69.1646 36.6861 69.2085 36.7708 69.2347Z" fill="white"/>
<path fill-rule="evenodd" clip-rule="evenodd" d="M58.0963 73.5144C59.7499 72.7437 60.2122 70.8521 61.0338 69.4829C62.1536 67.6078 64.0377 65.7886 63.6341 63.4824C63.5442 62.9659 63.1393 61.9173 62.3567 62.3104C61.5676 62.707 61.3203 63.9004 61.1315 64.6177C60.8997 65.5036 60.7473 66.4203 60.2473 67.2231C59.6731 68.1481 58.8176 68.9236 58.1054 69.7596C57.3567 70.6431 56.5143 71.6406 56.1757 72.7331C56.0976 72.9848 56.0234 73.309 56.1926 73.5453C56.2174 73.5809 56.2421 73.6118 56.2708 73.6391C56.6939 74.0785 57.6354 73.7306 58.0963 73.5144Z" fill="white"/>
<mask id="mask1_78_28" style="mask-type:luminance" maskUnits="userSpaceOnUse" x="50" y="21" width="24" height="5">
<path d="M50.6666 21.9795H73.6666V25.5361H50.6666V21.9795Z" fill="white"/>
</mask>
<g mask="url(#mask1_78_28)">
<path fill-rule="evenodd" clip-rule="evenodd" d="M73.5234 24.9746C73.5482 24.9318 73.5664 24.8831 73.5742 24.8309C73.6315 24.4818 73.1302 24.2015 72.8594 24.0388C72.2825 23.6897 71.6211 23.7063 70.987 23.4866C70.4232 23.2931 69.4779 22.7836 68.9779 22.6922C67.5039 22.4203 67.6458 22.6922 66.1536 22.5224C63.8555 22.26 59.9206 21.9833 57.6367 22.2243C56.9258 22.2991 56.2161 22.3716 55.5039 22.4333C54.6159 22.5105 53.72 22.5129 52.8359 22.6506C52.2786 22.7385 51.3815 22.8763 51.0729 23.3774C50.9297 23.609 50.9492 24.0008 51.0794 24.2383C51.3542 24.7347 52.0234 24.7015 52.5338 24.6112C53.4401 24.4521 54.3125 24.3891 55.2344 24.3963C56.6667 24.407 59.7057 24.8095 61.1237 24.648C62.0156 24.5459 62.9062 24.4165 63.8073 24.3963C64.7864 24.3737 65.3112 24.2229 66.2864 24.3108C67.1667 24.3903 66.8789 24.1528 67.7565 24.2609C68.6002 24.3666 69.9531 25.0815 70.8698 25.2228C71.4141 25.3059 71.97 25.4068 72.5247 25.37C72.8411 25.3498 73.3516 25.2679 73.5234 24.9746Z" fill="white"/>
</g>
</svg>
