<svg xmlns="http://www.w3.org/2000/svg" xmlns:xlink="http://www.w3.org/1999/xlink" width="500" zoomAndPan="magnify" viewBox="0 0 375 374.999991" height="500" preserveAspectRatio="xMidYMid meet" version="1.0"><defs><clipPath id="9113b846be"><path d="M 112.5 171 L 157 171 L 157 216 L 112.5 216 Z M 112.5 171 " clip-rule="nonzero"/></clipPath><clipPath id="35240c1f37"><path d="M 218 170 L 262.5 170 L 262.5 215 L 218 215 Z M 218 170 " clip-rule="nonzero"/></clipPath><clipPath id="80cc044034"><path d="M 141 222 L 234 222 L 234 248.25 L 141 248.25 Z M 141 222 " clip-rule="nonzero"/></clipPath><clipPath id="63d38fc488"><path d="M 135 126.75 L 220 126.75 L 220 166 L 135 166 Z M 135 126.75 " clip-rule="nonzero"/></clipPath></defs><g clip-path="url(#9113b846be)"><path fill="#2e4e5a" d="M 148.378906 209.941406 C 148.832031 210.105469 149.339844 209.964844 149.644531 209.589844 L 152.882812 205.632812 C 153.183594 205.257812 153.222656 204.738281 152.976562 204.320312 L 150.53125 200.269531 L 151.402344 197.386719 L 155.679688 195.363281 C 156.113281 195.160156 156.375 194.703125 156.328125 194.222656 L 155.816406 189.132812 C 155.769531 188.652344 155.425781 188.257812 154.960938 188.140625 L 150.367188 187.003906 L 148.941406 184.347656 L 150.539062 179.898438 C 150.703125 179.445312 150.5625 178.933594 150.1875 178.632812 L 146.230469 175.394531 C 145.859375 175.089844 145.335938 175.050781 144.917969 175.300781 L 140.867188 177.746094 L 137.984375 176.871094 L 135.960938 172.597656 C 135.757812 172.164062 135.300781 171.902344 134.820312 171.949219 L 129.730469 172.457031 C 129.25 172.503906 128.855469 172.847656 128.738281 173.316406 L 127.605469 177.910156 L 124.949219 179.332031 L 120.496094 177.734375 C 120.042969 177.574219 119.535156 177.710938 119.230469 178.085938 L 115.992188 182.039062 C 115.6875 182.414062 115.652344 182.933594 115.898438 183.351562 L 118.34375 187.402344 L 117.472656 190.285156 L 113.195312 192.308594 C 112.761719 192.511719 112.5 192.96875 112.546875 193.449219 L 113.054688 198.539062 C 113.101562 199.019531 113.449219 199.414062 113.914062 199.53125 L 118.507812 200.667969 L 119.929688 203.324219 L 118.335938 207.773438 C 118.171875 208.226562 118.3125 208.738281 118.683594 209.039062 L 122.640625 212.277344 C 123.015625 212.582031 123.539062 212.621094 123.953125 212.371094 L 128.003906 209.925781 L 130.890625 210.800781 L 132.910156 215.074219 C 133.050781 215.375 133.308594 215.589844 133.609375 215.675781 C 133.75 215.71875 133.898438 215.734375 134.054688 215.71875 L 139.140625 215.210938 C 139.621094 215.164062 140.019531 214.816406 140.136719 214.351562 L 141.269531 209.757812 L 143.925781 208.335938 Z M 141.914062 194.25 C 141.691406 198.375 138.164062 201.539062 134.039062 201.316406 C 129.914062 201.089844 126.75 197.566406 126.972656 193.441406 C 127.199219 189.316406 130.722656 186.152344 134.847656 186.375 C 138.972656 186.597656 142.132812 190.125 141.914062 194.25 Z M 141.914062 194.25 " fill-opacity="1" fill-rule="nonzero"/></g><g clip-path="url(#35240c1f37)"><path fill="#2e4e5a" d="M 261.757812 189.539062 L 257.34375 187.839844 L 256.257812 185.027344 L 258.398438 180.808594 C 258.617188 180.378906 258.539062 179.859375 258.207031 179.507812 L 254.6875 175.804688 C 254.355469 175.453125 253.835938 175.351562 253.398438 175.546875 L 249.078125 177.464844 L 246.324219 176.242188 L 244.851562 171.746094 C 244.703125 171.289062 244.285156 170.976562 243.796875 170.964844 L 238.6875 170.832031 C 238.207031 170.820312 237.765625 171.113281 237.59375 171.5625 L 235.894531 175.976562 L 233.082031 177.058594 L 228.863281 174.921875 C 228.433594 174.703125 227.914062 174.78125 227.566406 175.113281 L 223.859375 178.632812 C 223.507812 178.964844 223.40625 179.480469 223.601562 179.921875 L 225.519531 184.242188 L 224.296875 186.996094 L 219.804688 188.464844 C 219.34375 188.617188 219.03125 189.035156 219.019531 189.519531 L 218.886719 194.632812 C 218.875 195.113281 219.167969 195.550781 219.617188 195.722656 L 224.03125 197.421875 L 225.113281 200.238281 L 222.976562 204.457031 C 222.757812 204.886719 222.835938 205.402344 223.167969 205.753906 L 226.6875 209.460938 C 227.019531 209.808594 227.535156 209.914062 227.976562 209.714844 L 232.296875 207.796875 L 235.050781 209.019531 L 236.519531 213.515625 C 236.625 213.828125 236.851562 214.074219 237.140625 214.203125 C 237.277344 214.261719 237.421875 214.296875 237.578125 214.300781 L 242.6875 214.429688 C 243.167969 214.445312 243.605469 214.152344 243.777344 213.703125 L 245.476562 209.289062 L 248.292969 208.203125 L 252.511719 210.34375 C 252.941406 210.5625 253.460938 210.480469 253.808594 210.152344 L 257.515625 206.632812 C 257.867188 206.300781 257.96875 205.78125 257.773438 205.34375 L 255.855469 201.019531 L 257.078125 198.265625 L 261.570312 196.796875 C 262.027344 196.648438 262.339844 196.226562 262.355469 195.742188 L 262.484375 190.632812 C 262.5 190.152344 262.207031 189.710938 261.757812 189.539062 Z M 248.050781 193.964844 C 247.3125 198.03125 243.417969 200.726562 239.355469 199.988281 C 235.289062 199.253906 232.589844 195.359375 233.328125 191.292969 C 234.066406 187.230469 237.957031 184.53125 242.023438 185.269531 C 246.089844 186 248.789062 189.898438 248.050781 193.964844 Z M 248.050781 193.964844 " fill-opacity="1" fill-rule="nonzero"/></g><path fill="#2e4e5a" d="M 222.183594 184.382812 C 222.769531 183.855469 222.957031 183.011719 222.660156 182.28125 L 219.453125 174.539062 C 219.148438 173.8125 218.421875 173.347656 217.632812 173.390625 L 209.882812 173.789062 L 206.390625 170.292969 L 206.785156 162.542969 C 206.828125 161.753906 206.367188 161.027344 205.636719 160.722656 L 197.894531 157.515625 C 197.167969 157.214844 196.320312 157.40625 195.792969 157.992188 L 190.59375 163.753906 L 185.652344 163.753906 L 180.453125 157.992188 C 179.925781 157.40625 179.078125 157.21875 178.351562 157.515625 L 170.609375 160.722656 C 169.878906 161.027344 169.417969 161.753906 169.460938 162.542969 L 169.855469 170.292969 L 166.363281 173.789062 L 158.613281 173.390625 C 157.824219 173.347656 157.097656 173.8125 156.792969 174.539062 L 153.585938 182.28125 C 153.285156 183.011719 153.476562 183.855469 154.0625 184.382812 L 159.824219 189.582031 L 159.824219 194.527344 L 154.0625 199.726562 C 153.476562 200.257812 153.289062 201.101562 153.585938 201.828125 L 156.792969 209.570312 C 157.097656 210.300781 157.824219 210.761719 158.613281 210.71875 L 166.363281 210.324219 L 169.855469 213.820312 L 169.460938 221.566406 C 169.417969 222.355469 169.878906 223.085938 170.609375 223.386719 L 178.351562 226.59375 C 179.078125 226.898438 179.925781 226.707031 180.453125 226.117188 L 185.652344 220.359375 L 190.59375 220.359375 L 195.792969 226.117188 C 196.152344 226.519531 196.660156 226.734375 197.179688 226.734375 C 197.417969 226.734375 197.660156 226.6875 197.894531 226.59375 L 205.636719 223.386719 C 206.367188 223.085938 206.828125 222.355469 206.785156 221.566406 L 206.390625 213.820312 L 209.882812 210.324219 L 217.632812 210.71875 C 218.421875 210.761719 219.148438 210.300781 219.453125 209.570312 L 222.660156 201.828125 C 222.960938 201.101562 222.769531 200.257812 222.183594 199.726562 L 216.429688 194.527344 L 216.429688 189.582031 Z M 188.117188 212.203125 C 176.988281 212.203125 167.96875 203.183594 167.96875 192.054688 C 167.96875 180.929688 176.988281 171.90625 188.117188 171.90625 C 199.242188 171.90625 208.265625 180.929688 208.265625 192.054688 C 208.265625 203.183594 199.242188 212.203125 188.117188 212.203125 Z M 188.117188 212.203125 " fill-opacity="1" fill-rule="nonzero"/><path fill="#2e4e5a" d="M 191.613281 189.746094 C 193.527344 188.546875 194.800781 186.421875 194.800781 183.996094 C 194.800781 180.25 191.765625 177.21875 188.023438 177.21875 C 184.28125 177.21875 181.246094 180.25 181.246094 183.996094 C 181.246094 186.417969 182.519531 188.546875 184.433594 189.746094 C 179.421875 191.28125 175.777344 195.941406 175.777344 201.460938 C 175.777344 202.253906 176.335938 202.917969 177.082031 203.074219 C 178.175781 204.191406 182.664062 205.019531 188.035156 205.019531 C 193.417969 205.019531 197.914062 204.1875 198.996094 203.070312 C 199.730469 202.902344 200.277344 202.246094 200.277344 201.460938 C 200.273438 195.941406 196.628906 191.28125 191.613281 189.746094 Z M 191.613281 189.746094 " fill-opacity="1" fill-rule="nonzero"/><path fill="#2e4e5a" d="M 225.398438 166.679688 L 225.398438 157.839844 C 225.398438 157.007812 224.726562 156.339844 223.902344 156.339844 L 218.902344 156.339844 C 218.070312 156.339844 217.402344 157.011719 217.402344 157.839844 L 217.402344 166.679688 C 217.402344 167.507812 218.074219 168.175781 218.902344 168.175781 L 223.902344 168.175781 C 224.726562 168.183594 225.398438 167.507812 225.398438 166.679688 Z M 225.398438 166.679688 " fill-opacity="1" fill-rule="nonzero"/><path fill="#2e4e5a" d="M 230.234375 151.671875 C 229.402344 151.671875 228.734375 152.34375 228.734375 153.171875 L 228.734375 166.679688 C 228.734375 167.507812 229.410156 168.175781 230.234375 168.175781 L 235.234375 168.175781 C 236.0625 168.175781 236.730469 167.503906 236.730469 166.679688 L 236.730469 153.171875 C 236.730469 152.339844 236.058594 151.671875 235.234375 151.671875 Z M 230.234375 151.671875 " fill-opacity="1" fill-rule="nonzero"/><path fill="#2e4e5a" d="M 240.070312 144.503906 L 240.070312 166.679688 C 240.070312 167.507812 240.742188 168.175781 241.566406 168.175781 L 246.566406 168.175781 C 247.394531 168.175781 248.0625 167.503906 248.0625 166.679688 L 248.0625 144.503906 C 248.0625 143.671875 247.390625 143.007812 246.566406 143.007812 L 241.570312 143.007812 C 240.742188 143.007812 240.070312 143.679688 240.070312 144.503906 Z M 240.070312 144.503906 " fill-opacity="1" fill-rule="nonzero"/><path fill="#2e4e5a" d="M 221.050781 149.316406 C 221.203125 149.320312 221.363281 149.316406 221.515625 149.316406 L 221.988281 149.316406 C 222.144531 149.3125 222.300781 149.308594 222.457031 149.296875 C 222.617188 149.289062 222.777344 149.289062 222.929688 149.273438 L 223.402344 149.238281 C 223.558594 149.222656 223.71875 149.214844 223.871094 149.195312 L 224.34375 149.140625 C 224.421875 149.128906 224.503906 149.121094 224.582031 149.109375 L 224.816406 149.074219 C 226.074219 148.886719 227.328125 148.589844 228.558594 148.183594 C 229.785156 147.777344 230.984375 147.253906 232.144531 146.636719 C 234.464844 145.398438 236.589844 143.734375 238.410156 141.726562 C 239.9375 140.039062 241.234375 138.105469 242.242188 136 L 244.148438 136.550781 C 244.632812 136.691406 245.066406 136.207031 244.871094 135.738281 L 242.066406 129.007812 C 241.917969 128.652344 241.476562 128.527344 241.164062 128.746094 L 235.195312 132.933594 C 234.78125 133.222656 234.886719 133.863281 235.375 134.007812 L 237.101562 134.507812 C 236.636719 136.125 235.960938 137.703125 235.066406 139.183594 C 233.90625 141.085938 232.40625 142.839844 230.609375 144.289062 C 229.710938 145.015625 228.746094 145.675781 227.71875 146.25 C 226.691406 146.820312 225.609375 147.308594 224.484375 147.707031 L 224.273438 147.78125 C 224.203125 147.804688 224.132812 147.828125 224.058594 147.851562 L 223.628906 147.984375 C 223.484375 148.03125 223.339844 148.070312 223.195312 148.113281 L 222.761719 148.234375 C 222.617188 148.269531 222.46875 148.304688 222.324219 148.335938 C 222.179688 148.367188 222.027344 148.40625 221.878906 148.4375 L 221.4375 148.527344 C 221.289062 148.554688 221.136719 148.589844 220.988281 148.613281 L 217.339844 149.242188 Z M 221.050781 149.316406 " fill-opacity="1" fill-rule="nonzero"/><g clip-path="url(#80cc044034)"><path fill="#2e4e5a" d="M 232.863281 224.035156 C 231.964844 223.296875 230.644531 223.421875 229.902344 224.316406 C 219.535156 236.851562 204.269531 244.039062 188.023438 244.039062 C 176.871094 244.039062 166.160156 240.6875 157.046875 234.347656 C 156.859375 234.214844 156.65625 234.121094 156.453125 234.0625 L 160.523438 229.992188 C 160.976562 229.539062 161.152344 228.882812 160.988281 228.265625 C 160.824219 227.648438 160.34375 227.164062 159.730469 226.992188 L 143.769531 222.574219 C 143.144531 222.402344 142.480469 222.578125 142.019531 223.039062 C 141.5625 223.496094 141.386719 224.164062 141.558594 224.789062 L 145.972656 240.746094 C 146.148438 241.363281 146.628906 241.84375 147.25 242.003906 C 147.398438 242.046875 147.550781 242.066406 147.707031 242.066406 C 148.175781 242.066406 148.636719 241.878906 148.976562 241.539062 L 153.828125 236.683594 C 153.960938 237.125 154.234375 237.519531 154.640625 237.800781 C 164.464844 244.632812 176.007812 248.246094 188.019531 248.246094 C 192.476562 248.246094 196.914062 247.742188 201.21875 246.753906 C 205.402344 245.785156 209.488281 244.351562 213.363281 242.492188 C 217.164062 240.660156 220.78125 238.40625 224.109375 235.792969 C 227.421875 233.199219 230.453125 230.238281 233.132812 227 C 233.878906 226.097656 233.753906 224.777344 232.863281 224.035156 Z M 148.621094 236.8125 L 145.871094 226.882812 L 155.800781 229.632812 Z M 148.621094 236.8125 " fill-opacity="1" fill-rule="nonzero"/></g><g clip-path="url(#63d38fc488)"><path fill="#2e4e5a" d="M 136.972656 165.578125 C 137.277344 165.742188 137.609375 165.816406 137.9375 165.816406 C 138.691406 165.816406 139.425781 165.40625 139.804688 164.6875 C 149.203125 146.625 167.675781 135.402344 188.023438 135.402344 C 193.085938 135.402344 198.089844 136.097656 202.90625 137.464844 L 200.296875 142.074219 C 199.980469 142.628906 199.984375 143.308594 200.308594 143.863281 C 200.628906 144.414062 201.222656 144.757812 201.863281 144.757812 L 218.183594 144.757812 C 218.824219 144.757812 219.414062 144.414062 219.738281 143.863281 C 220.058594 143.3125 220.0625 142.632812 219.746094 142.074219 L 211.589844 127.664062 C 211.269531 127.097656 210.671875 126.753906 210.023438 126.753906 C 209.375 126.753906 208.777344 127.105469 208.460938 127.664062 L 205.035156 133.714844 C 199.542969 132.046875 193.820312 131.203125 188.023438 131.203125 C 182.492188 131.203125 177.011719 131.972656 171.746094 133.492188 C 166.644531 134.96875 161.757812 137.140625 157.230469 139.945312 C 148.257812 145.507812 140.941406 153.390625 136.074219 162.746094 C 135.542969 163.769531 135.945312 165.039062 136.972656 165.578125 Z M 210.023438 132.195312 L 215.101562 141.164062 L 204.945312 141.164062 Z M 210.023438 132.195312 " fill-opacity="1" fill-rule="nonzero"/></g></svg>