<svg xmlns="http://www.w3.org/2000/svg" xmlns:xlink="http://www.w3.org/1999/xlink" width="500" zoomAndPan="magnify" viewBox="0 0 375 374.999991" height="500" preserveAspectRatio="xMidYMid meet" version="1.0"><defs><clipPath id="68a966a066"><path d="M 126 112.5 L 249 112.5 L 249 262.5 L 126 262.5 Z M 126 112.5 " clip-rule="nonzero"/></clipPath></defs><path fill="#2e4e5a" d="M 162.960938 207.667969 C 164.503906 206.121094 165.316406 204.125 165.316406 201.890625 C 165.316406 199.679688 164.515625 197.691406 163.003906 196.148438 C 161.464844 194.5625 159.464844 193.726562 157.214844 193.726562 C 155.253906 193.726562 153.496094 194.40625 152.042969 195.628906 C 150.59375 194.402344 148.835938 193.726562 146.863281 193.726562 C 144.640625 193.726562 142.644531 194.558594 141.101562 196.121094 C 139.550781 197.679688 138.730469 199.675781 138.730469 201.890625 C 138.730469 204.101562 139.550781 206.09375 141.089844 207.644531 C 142.644531 209.214844 144.652344 210.046875 146.898438 210.046875 C 148.847656 210.046875 150.597656 209.367188 152.042969 208.140625 C 153.5 209.367188 155.269531 210.046875 157.246094 210.046875 C 159.449219 210.046875 161.429688 209.222656 162.960938 207.667969 Z M 148.425781 203.546875 C 147.984375 203.992188 147.53125 204.183594 146.898438 204.183594 C 146.222656 204.183594 145.738281 203.988281 145.277344 203.523438 C 144.824219 203.0625 144.617188 202.558594 144.617188 201.890625 C 144.617188 201.210938 144.8125 200.71875 145.285156 200.246094 C 145.738281 199.785156 146.210938 199.589844 146.863281 199.589844 C 147.523438 199.589844 147.992188 199.78125 148.433594 200.234375 C 148.886719 200.699219 149.082031 201.195312 149.082031 201.890625 C 149.082031 202.589844 148.890625 203.085938 148.425781 203.546875 Z M 154.964844 201.890625 C 154.964844 201.210938 155.164062 200.71875 155.636719 200.242188 C 156.085938 199.785156 156.5625 199.589844 157.214844 199.589844 C 157.875 199.589844 158.34375 199.78125 158.78125 200.234375 C 159.234375 200.695312 159.429688 201.191406 159.429688 201.890625 C 159.429688 202.589844 159.238281 203.082031 158.773438 203.546875 C 158.335938 203.992188 157.878906 204.183594 157.246094 204.183594 C 156.570312 204.183594 156.085938 203.988281 155.628906 203.523438 C 155.167969 203.0625 154.964844 202.558594 154.964844 201.890625 Z M 154.964844 201.890625 " fill-opacity="1" fill-rule="nonzero"/><g clip-path="url(#68a966a066)"><path fill="#2e4e5a" d="M 237.867188 112.5625 L 165.324219 112.5625 C 159.304688 112.5625 154.40625 117.445312 154.40625 123.445312 L 154.40625 164.269531 C 154.382812 164.289062 154.359375 164.304688 154.335938 164.324219 L 131.839844 164.324219 C 128.828125 164.324219 126.382812 166.914062 126.382812 170.097656 L 126.382812 216.371094 C 126.382812 219.554688 128.832031 222.144531 131.839844 222.144531 L 154.410156 222.144531 L 154.410156 251.722656 C 154.410156 257.722656 159.304688 262.605469 165.328125 262.605469 L 237.871094 262.605469 C 243.890625 262.605469 248.789062 257.722656 248.789062 251.722656 L 248.789062 123.445312 C 248.789062 117.445312 243.890625 112.5625 237.867188 112.5625 Z M 220.128906 183.890625 C 220.015625 183.929688 219.886719 183.96875 219.773438 184.007812 C 219.523438 184.09375 219.273438 184.175781 219.007812 184.257812 C 218.847656 184.308594 218.679688 184.351562 218.511719 184.398438 C 218.269531 184.46875 218.027344 184.542969 217.773438 184.609375 C 217.59375 184.65625 217.398438 184.703125 217.210938 184.746094 C 216.953125 184.8125 216.691406 184.875 216.417969 184.933594 C 216.21875 184.976562 216.011719 185.019531 215.804688 185.0625 C 215.515625 185.121094 215.21875 185.179688 214.914062 185.234375 C 214.714844 185.269531 214.503906 185.304688 214.296875 185.339844 C 213.949219 185.394531 213.597656 185.449219 213.226562 185.503906 C 213.046875 185.527344 212.859375 185.550781 212.671875 185.574219 C 212.230469 185.628906 211.777344 185.679688 211.308594 185.726562 C 211.179688 185.738281 211.058594 185.75 210.929688 185.761719 C 210.328125 185.816406 209.707031 185.867188 209.054688 185.902344 C 208.894531 185.914062 208.738281 185.957031 208.578125 185.992188 C 208.5 186.011719 208.421875 186.011719 208.347656 186.035156 C 208.105469 186.109375 207.878906 186.214844 207.664062 186.347656 C 201.746094 190.042969 195.707031 192.46875 190.855469 194.417969 C 189.257812 195.0625 187.75 195.667969 186.425781 196.25 C 185.03125 196.859375 183.757812 197.183594 182.738281 197.183594 C 181.398438 197.183594 180.644531 196.679688 180.289062 195.542969 C 179.742188 193.777344 180.359375 190.566406 182.910156 187.636719 C 183.679688 186.757812 184.601562 185.902344 185.742188 185.121094 L 188.300781 183.378906 L 190.832031 183.378906 L 190.832031 181.648438 L 192.496094 180.511719 C 192.847656 180.269531 193.140625 179.957031 193.359375 179.59375 C 194.804688 177.175781 195.835938 176.117188 196.390625 175.550781 C 196.933594 174.992188 197.941406 173.960938 197.667969 172.351562 C 197.390625 170.742188 196.089844 170.097656 195.390625 169.75 C 195.273438 169.691406 195.140625 169.625 194.992188 169.546875 C 193.121094 168.585938 191.660156 167.75 190.375 167.011719 C 187.558594 165.390625 185.695312 164.324219 183.351562 164.324219 L 164.371094 164.324219 C 165.667969 163.386719 166.933594 162.476562 168.160156 161.609375 C 168.5 161.367188 168.835938 161.132812 169.171875 160.894531 C 169.707031 160.519531 170.234375 160.152344 170.75 159.796875 C 171.265625 159.441406 171.769531 159.101562 172.265625 158.765625 C 172.527344 158.585938 172.792969 158.40625 173.050781 158.234375 C 173.695312 157.808594 174.320312 157.410156 174.929688 157.023438 C 175.117188 156.902344 175.3125 156.777344 175.5 156.664062 C 176.136719 156.269531 176.75 155.902344 177.339844 155.566406 C 177.496094 155.476562 177.644531 155.390625 177.792969 155.304688 C 178.390625 154.972656 178.960938 154.671875 179.503906 154.40625 C 179.617188 154.351562 179.726562 154.300781 179.832031 154.25 C 180.386719 153.992188 180.917969 153.765625 181.40625 153.585938 C 181.46875 153.566406 181.527344 153.550781 181.585938 153.53125 C 182.101562 153.355469 182.585938 153.214844 183.019531 153.148438 C 183.320312 153.101562 184.070312 153.023438 185.757812 153.023438 C 193.90625 153.023438 212.546875 154.796875 221.160156 155.664062 L 221.160156 183.507812 C 220.832031 183.632812 220.484375 183.765625 220.128906 183.890625 Z M 242.902344 145.28125 L 224.105469 145.28125 C 222.480469 145.28125 221.160156 146.59375 221.160156 148.214844 L 221.160156 149.769531 C 211.378906 148.789062 193.914062 147.15625 185.757812 147.15625 C 185.355469 147.15625 184.980469 147.160156 184.628906 147.167969 C 183.570312 147.191406 182.742188 147.253906 182.105469 147.351562 C 182.105469 147.351562 182.101562 147.355469 182.101562 147.355469 C 181.484375 147.449219 180.835938 147.617188 180.167969 147.824219 C 180.117188 147.839844 180.074219 147.851562 180.027344 147.867188 C 179.375 148.074219 178.691406 148.34375 177.992188 148.652344 C 177.914062 148.683594 177.84375 148.714844 177.765625 148.746094 C 177.066406 149.0625 176.339844 149.425781 175.585938 149.828125 C 175.5 149.871094 175.417969 149.914062 175.332031 149.960938 C 174.566406 150.378906 173.773438 150.835938 172.949219 151.339844 C 172.875 151.382812 172.800781 151.425781 172.726562 151.472656 C 171.875 151.996094 170.988281 152.558594 170.070312 153.164062 C 170.039062 153.183594 170.007812 153.203125 169.980469 153.226562 C 167.074219 155.140625 163.859375 157.4375 160.285156 160.023438 L 160.285156 139.101562 L 242.898438 139.101562 L 242.898438 145.28125 Z M 227.046875 185.445312 L 227.046875 151.144531 L 242.902344 151.144531 L 242.902344 187.3125 L 227.046875 187.3125 Z M 165.324219 118.425781 L 237.867188 118.425781 C 240.644531 118.425781 242.902344 120.675781 242.902344 123.445312 L 242.902344 133.238281 L 160.289062 133.238281 L 160.289062 123.445312 C 160.289062 120.675781 162.546875 118.425781 165.324219 118.425781 Z M 155.289062 170.183594 L 183.347656 170.183594 C 184.117188 170.183594 185.511719 170.984375 187.441406 172.09375 C 188.246094 172.554688 189.175781 173.089844 190.253906 173.679688 C 189.777344 174.3125 189.238281 175.085938 188.648438 176.03125 L 187.417969 176.871094 L 132.261719 176.871094 L 132.261719 170.183594 Z M 132.261719 183.375 L 178.832031 183.375 C 174.652344 187.894531 173.46875 193.421875 174.671875 197.277344 C 175.792969 200.890625 178.808594 203.046875 182.742188 203.046875 C 184.59375 203.046875 186.632812 202.566406 188.796875 201.621094 C 190.039062 201.074219 191.507812 200.484375 193.0625 199.859375 C 193.96875 199.496094 194.921875 199.105469 195.90625 198.707031 C 196.101562 198.625 196.285156 198.550781 196.488281 198.464844 C 197.484375 198.054688 198.515625 197.617188 199.570312 197.148438 C 199.773438 197.0625 199.972656 196.972656 200.175781 196.882812 C 201.265625 196.394531 202.375 195.882812 203.507812 195.328125 C 203.621094 195.273438 203.734375 195.214844 203.847656 195.160156 C 204.941406 194.621094 206.050781 194.042969 207.167969 193.425781 C 207.273438 193.371094 207.371094 193.324219 207.480469 193.265625 L 207.480469 216.277344 L 132.261719 216.277344 Z M 207.902344 222.144531 C 210.914062 222.144531 213.359375 219.550781 213.359375 216.371094 L 213.359375 191.402344 C 214.011719 191.324219 214.628906 191.230469 215.226562 191.132812 C 215.242188 191.128906 215.261719 191.128906 215.277344 191.125 C 216.019531 191 216.726562 190.867188 217.394531 190.726562 C 217.515625 190.699219 217.625 190.667969 217.742188 190.644531 C 218.257812 190.527344 218.753906 190.410156 219.226562 190.285156 C 219.425781 190.234375 219.613281 190.179688 219.804688 190.128906 C 220.175781 190.023438 220.539062 189.917969 220.882812 189.808594 C 220.972656 189.78125 221.070312 189.753906 221.160156 189.726562 L 221.160156 190.246094 C 221.160156 191.867188 222.476562 193.179688 224.101562 193.179688 L 242.902344 193.179688 L 242.902344 236.429688 L 160.289062 236.429688 L 160.289062 222.140625 L 207.902344 222.140625 Z M 237.867188 256.738281 L 165.324219 256.738281 C 162.546875 256.738281 160.292969 254.488281 160.292969 251.722656 L 160.292969 242.292969 L 242.90625 242.292969 L 242.90625 251.722656 C 242.902344 254.488281 240.644531 256.738281 237.867188 256.738281 Z M 237.867188 256.738281 " fill-opacity="1" fill-rule="nonzero"/></g><path fill="#2e4e5a" d="M 189.859375 128.777344 L 213.152344 128.777344 C 214.777344 128.777344 216.09375 127.464844 216.09375 125.84375 C 216.09375 124.226562 214.777344 122.910156 213.152344 122.910156 L 189.859375 122.910156 C 188.234375 122.910156 186.917969 124.226562 186.917969 125.84375 C 186.917969 127.464844 188.234375 128.777344 189.859375 128.777344 Z M 189.859375 128.777344 " fill-opacity="1" fill-rule="nonzero"/></svg>